<svg width="47" height="52" viewBox="0 0 47 52" fill="none" xmlns="http://www.w3.org/2000/svg">
<path d="M23.7184 37.025L24.6239 34.5326C24.5277 34.4241 24.4302 34.3156 24.3301 34.2066C22.668 32.3237 22.397 29.4837 21.7119 26.9913C20.4145 26.3602 20.3085 26.1734 19.7995 25.2765C19.7963 25.2685 7.2669 0.862152 7.2552 0.84C5.5275 1.32621 7.575 4.37012 8.4421 7.3277C11.0525 14.4959 15.5934 26.9663 16.0933 28.338C16.1492 28.4584 16.0568 28.3369 16.387 29.0219C17.2171 30.5862 18.807 31.2354 20.0368 32.6747C21.2842 34.0334 22.1577 35.15 23.7184 37.025ZM18.6126 28.797C18.6126 28.2312 19.1372 27.7723 19.7846 27.7723C20.432 27.7723 20.9572 28.2312 20.9572 28.797C20.9572 29.3627 20.4327 29.8211 19.7846 29.8211C19.1366 29.8211 18.6126 29.3627 18.6126 28.797ZM33.8688 42.0348C30.9952 41.231 29.3305 39.9928 27.9447 38.5126L26.8312 40.8914C27.5657 42.1228 28.2619 43.9824 28.3087 46.9292C28.6909 50.1663 32.223 52.5683 35.5627 51.8078C38.9836 50.987 40.127 47.3524 38.073 44.5272C37.0648 43.1384 35.4782 42.2512 33.8688 42.0348ZM35.8747 49.9703C31.6497 52.0691 27.5729 46.2226 31.5769 43.9188C35.8181 41.9428 39.6915 47.6778 35.8747 49.9703ZM21.5331 25.3645C21.6514 25.4759 21.9179 25.6281 22.4236 25.8746L22.9839 26.1472L23.1341 26.6925C23.2738 27.2009 23.3967 27.7229 23.5137 28.2341C24.163 26.45 28.5063 14.5226 31.0686 7.48617C32.3576 3.81405 33.1915 2.0754 33.0043 1.61305C32.9289 1.25634 32.7014 0.935992 32.3147 0.84C32.2256 1.01381 23.3999 18.2055 20.586 23.6855C20.8792 24.2569 21.0677 24.6239 21.1223 24.7301C21.327 25.0896 21.431 25.2691 21.5331 25.3645ZM17.4114 32.1112C17.1807 31.9249 16.9408 31.7318 16.7029 31.5251C16.2434 32.9377 15.687 33.7499 14.19 35.4556C11.4438 38.6131 10.5117 40.6369 5.7004 42.0353C1.13155 42.6897 -1.1987 47.8011 1.84655 50.6871C5.2623 53.6873 10.8263 50.9597 11.2612 46.9304C11.4744 40.805 13.6291 39.9411 15.9126 36.9426C17.4407 35.1614 18.0433 34.3395 18.8506 33.4233C18.4255 32.9292 17.9327 32.5316 17.4114 32.1112ZM8.914 48.6508C5.8525 52.4962 0.304751 49.4489 2.7325 45.4513C5.8083 41.2373 11.6837 44.6027 8.914 48.6508ZM39.633 0.912136C39.0785 0.705384 38.4402 0.95928 38.2537 1.46026L28.7734 26.9572L19.7924 51.6646C19.7495 51.7834 19.8236 51.9106 19.9595 51.9492C20.0888 51.9861 20.2286 51.9293 20.2799 51.8191L30.2814 30.4521C30.3939 30.2113 30.5356 29.9818 30.7039 29.7677C31.5788 28.6533 33.0862 28.0512 34.6234 28.2017L37.241 28.4584L37.3235 28.2358C37.3333 28.2096 37.3183 28.1812 37.2891 28.171L32.6598 26.567C32.6169 26.5522 32.5942 26.5102 32.6085 26.4721C32.6228 26.4335 32.6689 26.4114 32.7138 26.4216L37.538 27.5014C37.5686 27.5082 37.5998 27.4934 37.6096 27.4673C37.6193 27.4411 37.6043 27.4127 37.5751 27.4031L32.9458 25.7991C32.9029 25.7843 32.8802 25.7428 32.8945 25.7042C32.9088 25.6656 32.9549 25.6434 32.9997 25.6536L37.8241 26.7334C37.8546 26.7402 37.8858 26.7255 37.8956 26.6993C37.9053 26.6732 37.8904 26.6448 37.8611 26.6352L33.2318 25.0311C33.1889 25.0164 33.1661 24.9749 33.1804 24.9363C33.1947 24.8976 33.2409 24.8755 33.2857 24.8857L38.11 25.9655C38.1406 25.9723 38.1718 25.9575 38.1815 25.9314C38.1913 25.9053 38.1763 25.8769 38.1471 25.8666L33.5178 24.2626C33.4749 24.2478 33.4521 24.2058 33.4664 24.1678C33.4807 24.1291 33.5269 24.107 33.5718 24.1172L38.396 25.197C38.4266 25.2038 38.4578 25.189 38.4675 25.1629C38.4773 25.1368 38.4623 25.1084 38.4331 25.0987L33.8038 23.4947C33.7609 23.4799 33.7382 23.4384 33.7525 23.3998C33.7668 23.3612 33.8129 23.339 33.8577 23.3493L38.6821 24.429C38.7126 24.4359 38.7438 24.4211 38.7536 24.395C38.7633 24.3688 38.7484 24.3404 38.7191 24.3308L34.0898 22.7267C34.0469 22.712 34.0241 22.6699 34.0384 22.6319C34.0527 22.5933 34.0989 22.5711 34.1437 22.5813L38.968 23.6611C38.9986 23.6679 39.0298 23.6532 39.0395 23.627C39.0493 23.6009 39.0343 23.5725 39.0051 23.5628L34.3758 21.9588C34.3329 21.944 34.3101 21.902 34.3244 21.864C34.3387 21.8253 34.3849 21.8032 34.4298 21.8134L39.254 22.8932C39.2846 22.9 39.3158 22.8852 39.3255 22.8591C39.3353 22.833 39.3203 22.8046 39.2911 22.7949L34.6618 21.1909C34.6189 21.1761 34.5962 21.1346 34.6105 21.096C34.6248 21.0574 34.6709 21.0352 34.7157 21.0455L39.5401 22.1252C39.5706 22.132 39.6018 22.1173 39.6116 22.0912C39.6213 22.065 39.6064 22.0366 39.5771 22.027L34.9478 20.4229C34.9049 20.4082 34.8821 20.3661 34.8964 20.3281C34.9107 20.2895 34.9569 20.2673 35.0017 20.2775L39.826 21.3573C39.8566 21.3641 39.8878 21.3493 39.8975 21.3232C39.9073 21.2971 39.8924 21.2687 39.8631 21.2585L35.2338 19.6544C35.1909 19.6397 35.1681 19.5976 35.1824 19.5596C35.1967 19.521 35.2429 19.4988 35.2878 19.509L40.112 20.5888C40.1426 20.5956 40.1738 20.5808 40.1835 20.5547C40.1933 20.5286 40.1783 20.5002 40.1491 20.4905L35.5198 18.8865C35.4769 18.8717 35.4542 18.8303 35.4685 18.7916C35.4828 18.753 35.5289 18.7309 35.5737 18.7411L40.3981 19.8209C40.4286 19.8277 40.4598 19.8129 40.4696 19.7868C40.4793 19.7606 40.4644 19.7322 40.4351 19.7226L35.8058 18.1186C35.7629 18.1038 35.7401 18.0618 35.7544 18.0237C35.7687 17.9851 35.8149 17.9629 35.8597 17.9732L40.684 19.0529C40.7146 19.0597 40.7458 19.045 40.7555 19.0188C40.7653 18.9927 40.7504 18.9643 40.7211 18.9547L36.0918 17.3506C36.0489 17.3359 36.0261 17.2944 36.0404 17.2558C36.0547 17.2171 36.1009 17.195 36.1458 17.2052L40.97 18.285C41.0006 18.2918 41.0318 18.277 41.0415 18.2509C41.0513 18.2248 41.0363 18.1964 41.0071 18.1867L36.3778 16.5827C36.3349 16.5679 36.3122 16.5265 36.3265 16.4878C36.3408 16.4492 36.3869 16.4271 36.4317 16.4373L41.2561 17.517C41.2866 17.5239 41.3178 17.5091 41.3276 17.483C41.3373 17.4568 41.3223 17.4284 41.2931 17.4188L36.6638 15.8148C36.6209 15.8 36.5981 15.758 36.6124 15.7199C36.6267 15.6818 36.6729 15.6591 36.7177 15.6693L41.5421 16.7491C41.5726 16.7559 41.6038 16.7412 41.6135 16.715C41.6233 16.6889 41.6084 16.6605 41.5791 16.6508L36.9498 15.0468C36.9069 15.032 36.8841 14.9906 36.8984 14.952C36.9127 14.9133 36.9589 14.8912 37.0038 14.9014L41.828 15.9812C41.8586 15.988 41.8898 15.9732 41.8995 15.9471C41.9093 15.921 41.8943 15.8926 41.8651 15.8829L37.2358 14.2789C37.1929 14.2641 37.1702 14.2226 37.1845 14.184C37.1988 14.1454 37.2449 14.1232 37.2897 14.1335L42.1134 15.2132C42.144 15.2201 42.1752 15.2053 42.1849 15.1792C42.1947 15.153 42.1797 15.1246 42.1505 15.1144L37.5211 13.5104C37.4782 13.4956 37.4555 13.4536 37.4698 13.4155C37.4841 13.3769 37.5302 13.3547 37.5751 13.365L42.3994 14.4447C42.4299 14.4516 42.4611 14.4368 42.4709 14.4107C42.4806 14.3845 42.4657 14.3561 42.4365 14.3465L37.8072 12.7424C37.7643 12.7277 37.7415 12.6856 37.7558 12.6476C37.7701 12.609 37.8163 12.5868 37.8611 12.597L42.6854 13.6768C42.716 13.6836 42.7472 13.6688 42.7569 13.6427C42.7667 13.6166 42.7517 13.5882 42.7225 13.5785L38.0931 11.9745C38.0502 11.9597 38.0275 11.9183 38.0418 11.8796C38.0561 11.841 38.1022 11.8189 38.1471 11.8291L42.9714 12.9089C43.002 12.9157 43.0332 12.9009 43.0429 12.8748C43.0527 12.8487 43.0377 12.8203 43.0085 12.81L38.3791 11.206C38.3362 11.1912 38.3135 11.1492 38.3278 11.1111C38.3421 11.0725 38.3882 11.0504 38.4331 11.0606L43.2574 12.1404C43.288 12.1472 43.3191 12.1324 43.3289 12.1063C43.3386 12.0802 43.3237 12.0518 43.2945 12.0421L38.6652 10.4381C38.6223 10.4233 38.5995 10.3813 38.6138 10.3432C38.6281 10.3046 38.6743 10.2824 38.7191 10.2927L43.5434 11.3724C43.574 11.3792 43.6052 11.3645 43.6149 11.3383C43.6247 11.3122 43.6097 11.2838 43.5805 11.2742L38.9512 9.67013C38.9083 9.65536 38.8855 9.6139 38.8998 9.57527C38.9141 9.53665 38.9602 9.5145 39.0051 9.52472L43.8294 10.6045C43.86 10.6113 43.8912 10.5965 43.9009 10.5704C43.9107 10.5443 43.8957 10.5159 43.8665 10.5057L39.2371 8.90162C39.1942 8.88686 39.1715 8.84482 39.1858 8.80677C39.2001 8.76814 39.2462 8.74599 39.2911 8.75622L44.1154 9.83598C44.146 9.8428 44.1771 9.82803 44.1869 9.8019C44.1966 9.77578 44.1817 9.74738 44.1525 9.73772L39.5232 8.13369C39.4803 8.11892 39.4575 8.07746 39.4718 8.03883C39.4861 8.00021 39.5323 7.97805 39.5771 7.98828L44.4014 9.06805C44.432 9.07486 44.4632 9.0601 44.4729 9.03397C44.4827 9.00784 44.4677 8.97944 44.4385 8.96978L39.8092 7.36575C39.7663 7.35098 39.7435 7.30952 39.7578 7.2709C39.7721 7.23227 39.8183 7.21012 39.8631 7.22034L44.6874 8.30011C44.718 8.30693 44.7492 8.29216 44.7589 8.26603C44.7687 8.2399 44.7537 8.2115 44.7245 8.20128L40.0951 6.59725C40.0522 6.58248 40.0295 6.54045 40.0438 6.50239C40.0581 6.46377 40.1042 6.44162 40.1491 6.45184L44.9734 7.53161C45.004 7.53842 45.0352 7.52366 45.0449 7.49753C45.0547 7.4714 45.0397 7.443 45.0105 7.43278L40.3811 5.82874C40.3382 5.81398 40.3155 5.77194 40.3298 5.73389C40.3441 5.69526 40.3903 5.67311 40.4351 5.68334L45.2594 6.7631C45.29 6.76992 45.3212 6.75515 45.3309 6.72902C45.3407 6.7029 45.3257 6.6745 45.2964 6.66484L40.6672 5.06081C40.6243 5.04604 40.6015 5.00458 40.6158 4.96595C40.6301 4.92733 40.6763 4.90518 40.7211 4.9154L45.5454 5.99517C45.576 6.00198 45.6072 5.98722 45.6169 5.96109C45.6267 5.93496 45.6117 5.90656 45.5825 5.89634L40.9531 4.2923C40.9102 4.27754 40.8875 4.2355 40.9018 4.19745C40.9161 4.15882 40.9622 4.13667 41.0071 4.1469L45.8314 5.22666C45.862 5.23348 45.8932 5.21871 45.9029 5.19258C45.9127 5.16646 45.8977 5.13806 45.8685 5.1284L41.2333 3.5096C41.1904 3.49483 41.1677 3.4528 41.182 3.41474C41.1963 3.37612 41.2424 3.35397 41.2872 3.36419L46.1116 4.44396C46.1421 4.45078 46.1733 4.43601 46.1831 4.40988C46.1928 4.38375 46.1779 4.35535 46.1486 4.3457L41.5193 2.74166C41.4764 2.7269 41.4536 2.68543 41.4679 2.64681C41.4822 2.60818 41.5284 2.58603 41.5732 2.59626L46.3976 3.67602C46.4281 3.68284 46.4593 3.66807 46.4691 3.64194L46.5289 3.48063L39.633 0.912136Z" fill="black"/>
</svg>
